<?xml version="1.0" encoding="UTF-8" standalone="no"?>
<svg
   xmlns:dc="http://purl.org/dc/elements/1.1/"
   xmlns:cc="http://creativecommons.org/ns#"
   xmlns:rdf="http://www.w3.org/1999/02/22-rdf-syntax-ns#"
   xmlns:svg="http://www.w3.org/2000/svg"
   xmlns="http://www.w3.org/2000/svg"
   xmlns:sodipodi="http://sodipodi.sourceforge.net/DTD/sodipodi-0.dtd"
   xmlns:inkscape="http://www.inkscape.org/namespaces/inkscape"
   width="200"
   height="50"
   viewBox="0 0 52.916666 13.229167"
   version="1.1"
   id="svg8"
   inkscape:version="1.0.2 (e86c870879, 2021-01-15)"
   sodipodi:docname="logo.svg"
   inkscape:export-filename="/home/malith/wireapps/marketplace/assets/splash.png"
   inkscape:export-xdpi="96"
   inkscape:export-ydpi="96">
  <defs
     id="defs2" />
  <sodipodi:namedview
     id="base"
     pagecolor="#35b8b1"
     bordercolor="#666666"
     borderopacity="1.0"
     inkscape:pageopacity="0"
     inkscape:pageshadow="2"
     inkscape:zoom="5.8147492"
     inkscape:cx="95.850789"
     inkscape:cy="26.049466"
     inkscape:document-units="mm"
     inkscape:current-layer="layer1"
     inkscape:document-rotation="0"
     showgrid="false"
     inkscape:window-width="1920"
     inkscape:window-height="1016"
     inkscape:window-x="0"
     inkscape:window-y="27"
     inkscape:window-maximized="1"
     units="px" />
  <metadata
     id="metadata5">
    <rdf:RDF>
      <cc:Work
         rdf:about="">
        <dc:format>image/svg+xml</dc:format>
        <dc:type
           rdf:resource="http://purl.org/dc/dcmitype/StillImage" />
        <dc:title></dc:title>
      </cc:Work>
    </rdf:RDF>
  </metadata>
  <g
     inkscape:label="Layer 1"
     inkscape:groupmode="layer"
     id="layer1">
    <g
       id="g155"
       transform="matrix(0.04183871,0,0,0.04183871,4.7129616,0.75510523)">
      <g
         id="g107"
         transform="matrix(1.7547798,0,0,1.7547798,-124.53868,-7.6912065)">
        <rect
           x="15"
           y="10.19"
           class="st0"
           width="150"
           height="150"
           id="rect93" />
        <polygon
           class="st1"
           points="93.2,77.82 72.36,102.84 116.47,120.48 107.65,119.01 63.53,111.66 52.28,25.47 50.29,10.19 63.53,23.42 "
           id="polygon95" />
        <polygon
           class="st2"
           points="52.28,25.47 15,32.25 50.29,10.19 "
           id="polygon97" />
        <polygon
           class="st3"
           points="116.47,120.48 107.65,160.19 107.65,119.01 "
           id="polygon99" />
        <polygon
           class="st2"
           points="165,124.89 112.41,112.37 111.99,112.27 72.36,102.84 93.2,77.82 94.41,76.37 "
           id="polygon101" />
        <polygon
           class="st3"
           points="116.47,120.48 72.36,102.84 111.99,112.27 "
           id="polygon103" />
        <polygon
           class="st1"
           points="107.65,151.37 107.65,160.19 98.82,160.19 "
           id="polygon105" />
      </g>
      <g
         id="g127">
        <g
           id="g125">
          <path
             class="st0"
             d="m 256.65,83.95 -10.08,74.58 H 232.7 L 214.43,11.47 h 11.56 c 3.57,0 4.41,2.1 4.62,3.15 l 10.08,80.46 7.35,-50.83 c 0.84,-8.61 3.36,-11.77 13.02,-11.77 h 1.89 l 9.87,62.6 9.67,-80.67 c 0.21,-1.05 1.26,-2.94 4.41,-2.94 h 11.98 l -17.86,147.06 h -14.08 z"
             id="path109" />
          <path
             class="st0"
             d="m 375.76,11.47 c 4.41,0 6.1,3.36 6.1,5.89 v 141.17 h -10.72 c -3.57,0 -4.2,-2.1 -4.41,-3.15 V 11.47 Z"
             id="path111" />
          <path
             class="st0"
             d="m 497.4,104.75 c 0,-7.14 -3.78,-9.45 -7.78,-9.45 h -7.98 v 63.23 H 466.51 V 11.47 h 27.52 c 10.08,0 18.49,8.19 18.49,18.49 v 45.38 c 0,0 0.63,11.55 -5.47,13.02 5.88,2.94 5.47,13.87 5.47,13.87 v 56.3 H 497.4 Z m -7.77,-23.74 c 3.99,0 7.78,-1.68 7.78,-8.4 v -39.5 c 0,-5.46 -3.78,-7.56 -7.78,-7.56 h -7.98 v 55.46 z"
             id="path113" />
          <path
             class="st0"
             d="m 645.5,143.61 c -1.68,3.78 -4.2,9.67 -4.83,10.93 -1.05,1.89 -3.36,3.99 -8.19,3.99 H 598.87 V 15.67 c 0.21,-2.31 2.1,-4.21 4.62,-4.21 h 39.28 l -5.04,10.93 c -0.84,1.89 -3.15,4.2 -7.98,4.2 h -12.19 c -2.1,0 -3.57,1.47 -3.57,3.57 v 43.7 h 22.68 c -1.68,3.78 -4.2,9.87 -4.83,11.13 -1.05,1.89 -3.15,3.99 -7.98,3.99 h -6.3 c -1.89,0 -3.57,1.68 -3.57,3.57 v 51.05 h 31.51 z"
             id="path115" />
          <path
             class="st0"
             d="m 768.19,158.53 h -16.6 L 738.36,57.27 725.12,158.53 H 708.53 L 730.8,11.47 h 8.19 c 6.3,0 7.35,3.99 7.98,7.98 z"
             id="path117" />
          <path
             class="st0"
             d="m 866.72,11.47 c 10.08,0 19.12,8.19 19.12,18.49 v 38.02 c 0,14.29 -6.93,24.58 -21.43,24.58 h -9.03 v 65.97 h -10.72 c -3.57,0 -4.2,-2.1 -4.2,-3.15 V 11.47 Z m 4.62,21.22 c -0.42,-3.99 -3.78,-7.14 -7.98,-7.14 h -7.98 v 52.94 h 7.98 c 4.2,0 7.56,-3.15 7.98,-7.14 z"
             id="path119" />
          <path
             class="st0"
             d="m 992.76,11.47 c 10.08,0 19.12,8.19 19.12,18.49 v 38.02 c 0,14.29 -6.93,24.58 -21.43,24.58 h -9.03 v 65.97 H 970.7 c -3.57,0 -4.2,-2.1 -4.2,-3.15 V 11.47 Z m 4.63,21.22 c -0.42,-3.99 -3.78,-7.14 -7.98,-7.14 h -7.98 v 52.94 h 7.98 c 4.2,0 7.56,-3.15 7.98,-7.14 z"
             id="path121" />
          <path
             class="st0"
             d="M 1119.65,48.45 V 31.43 c 0,-4.62 -3.57,-8.19 -7.98,-8.19 -4.41,0 -7.98,3.57 -7.98,8.19 v 14.08 c 0,8.61 6.51,19.74 6.51,19.74 l 18.07,34.04 c 7.35,13.45 6.73,23.32 6.73,23.32 v 18.7 c 0,10.29 -8.41,18.7 -18.91,18.7 h -9.45 c -10.08,-0.42 -18.07,-8.61 -18.28,-18.7 v -15.13 c 0,-4.84 2.31,-7.15 4.2,-8.19 1.26,-0.42 7.35,-3.15 11.13,-4.84 v 25.63 c 0,4.41 3.57,7.98 7.98,7.98 4.41,0 7.98,-3.57 7.98,-8.19 v -16.81 c 0,-8.61 -6.51,-19.96 -6.51,-19.96 l -18.07,-33.82 c -7.35,-13.45 -6.72,-23.32 -6.72,-23.32 V 29.54 c 0,-10.29 8.4,-19.54 18.91,-19.54 h 9.45 c 10.09,0.21 18.28,9.45 18.28,19.54 v 5.67 c 0,4.83 -2.31,7.14 -4.2,8.19 -1.27,0.63 -7.15,3.36 -11.14,5.05 z"
             id="path123" />
        </g>
      </g>
      <path
         style="fill:#ffffff;fill-opacity:1;stroke-width:5.14289"
         d="M 95.42743,160.54814 C 40.024208,122.42261 36.995461,119.36219 15.712554,79.998308 3.5446399,57.493158 -11.823831,32.614386 -18.439617,24.712246 L -30.468303,10.344597 h 95.60074 95.600733 v 95.143653 c 0,52.32885 -1.73571,95.04176 -3.85716,94.91733 -2.12144,-0.12458 -29.7733,-18.06029 -61.44858,-39.85744 z"
         id="path984" />
      <path
         style="fill:#ffffff;fill-opacity:1;stroke-width:5.14289"
         d="m -96.411598,162.40655 c 0,-123.17657 -3.778372,-111.923328 39.857438,-118.709472 12.021522,-1.869535 21.927857,-1.460064 22.014067,0.91 0.639447,17.576823 19.306505,141.202022 21.679402,143.574902 1.647432,1.64737 19.394109,5.53356 39.437082,8.63595 l 36.44178,5.64063 v 26.57554 c 0,41.21517 -4.871274,43.59829 -89.119912,43.59829 h -70.309857 z"
         id="path986" />
      <path
         style="fill:#ffffff;fill-opacity:1;stroke-width:5.14289"
         d="m 68.241402,268.77512 c 0.04419,-2.12135 3.332178,-17.68227 7.306666,-34.57956 3.974487,-16.89729 6.116042,-32.51885 4.759036,-34.71451 -3.522217,-5.69907 1.33043,-5.18208 43.140086,4.59656 l 37.28598,8.72064 v 29.91699 29.91715 h -46.28604 c -25.457342,0 -46.249923,-1.73577 -46.205728,-3.85727 z"
         id="path988" />
      <path
         style="fill:#ffffff;fill-opacity:1;stroke-width:5.14289"
         d="m -96.411598,25.773369 c 0,-15.196229 0.40686,-15.427289 27.000203,-15.331039 l 27.000202,0.09788 -24.413584,15.331038 c -13.427469,8.432035 -25.577556,15.330891 -27.000202,15.330891 -1.422647,0 -2.586619,-6.942903 -2.586619,-15.428624 z"
         id="path990" />
      <path
         style="fill:#ffffff;fill-opacity:1;stroke-width:3.46778"
         d="m 944.7122,1729.7674 c -5.2448,-43.3907 -10.29499,-81.6229 -11.22264,-84.9607 -1.27274,-4.5793 0.3846,-6.0686 6.75353,-6.0686 8.16762,0 8.58309,1.2408 12.86611,38.4253 2.43426,21.1339 5.5357,43.3711 6.89209,49.4159 2.40623,10.7235 2.51751,10.7799 4.57964,2.3211 1.16241,-4.7682 3.78083,-20.2126 5.81869,-34.3209 4.11923,-28.5177 5.28352,-31.5669 12.05334,-31.5669 2.84929,0 5.59133,5.7885 6.98145,14.738 6.74434,43.4198 9.66374,58.3013 11.14649,56.8185 0.9047,-0.9047 4.2408,-22.4466 7.4136,-47.871 5.484,-43.9449 6.1711,-46.2831 13.9245,-47.3805 7.6384,-1.0812 8.0224,-0.311 6.052,12.1372 -1.1572,7.3104 -5.2332,39.8202 -9.0578,72.2439 -10.0516,85.2141 -10.0004,84.9607 -17.1586,84.9607 -7.01132,0 -7.84621,-3.0921 -14.30137,-52.9669 -2.41275,-18.6418 -5.48606,-32.6863 -6.82958,-31.2101 -1.34352,1.4763 -4.28305,18.2891 -6.5323,37.3619 -5.0933,43.1893 -6.15643,46.8151 -13.72688,46.8151 -5.38449,0 -7.25719,-9.439 -15.65227,-78.892 z"
         id="path992"
         transform="matrix(0.84514927,0,0,0.84514927,-572.58483,-1371.7694)" />
      <path
         style="fill:#ffffff;fill-opacity:1;stroke-width:3.46778"
         d="m 1112.5949,1723.6987 c 0,-82.6487 0.1887,-84.9606 6.9356,-84.9606 6.7468,0 6.9355,2.3119 6.9355,84.9606 0,82.6488 -0.1887,84.9607 -6.9355,84.9607 -6.7469,0 -6.9356,-2.3119 -6.9356,-84.9607 z"
         id="path994"
         transform="matrix(0.84514927,0,0,0.84514927,-572.58483,-1371.7694)" />
      <path
         style="fill:#ffffff;fill-opacity:1;stroke-width:3.46778"
         d=""
         id="path996"
         transform="matrix(0.84514927,0,0,0.84514927,-572.58483,-1371.7694)" />
      <path
         style="fill:#ffffff;fill-opacity:1;stroke-width:3.46778"
         d="m 1230.4995,1723.6987 v -84.9606 h 19.0727 c 29.2739,0 32.944,5.3857 32.944,48.3443 0,19.3034 -1.5301,35.4188 -3.4772,36.6221 -2.3244,1.4366 -2.3244,4.3031 0,8.6462 1.9124,3.5734 3.4772,22.2047 3.4772,41.4029 0,32.5939 -0.4594,34.9058 -6.9356,34.9058 -6.4171,0 -6.9356,-2.3119 -6.9356,-30.9264 0,-37.8524 -1.3748,-41.897 -14.2421,-41.897 h -10.0323 v 36.4117 c 0,34.0998 -0.4404,36.4117 -6.9356,36.4117 -6.7468,0 -6.9355,-2.3119 -6.9355,-84.9607 z m 34.3988,-6.5994 c 2.561,-3.0858 3.6677,-15.4535 3.0255,-33.8109 l -1.0126,-28.9453 -11.2703,-1.0866 -11.2703,-1.0867 v 34.8975 c 0,34.4329 0.1097,34.8975 8.2448,34.8975 4.5347,0 10.062,-2.1895 12.2829,-4.8655 z"
         id="path998"
         transform="matrix(0.84514927,0,0,0.84514927,-572.58483,-1371.7694)" />
      <path
         style="fill:#ffffff;fill-opacity:1;stroke-width:3.46778"
         d="m 1387.3549,1724.5657 0.9286,-84.0937 23.6169,-1.0302 c 22.8572,-0.997 23.4947,-0.8018 19.8177,6.0687 -2.7061,5.0563 -7.2562,7.0987 -15.8144,7.0987 h -12.0152 v 29.4762 29.4761 h 12.2592 c 11.1847,0 11.9339,0.6079 8.5475,6.9356 -2.1706,4.0557 -7.2609,6.9355 -12.2593,6.9355 -8.5149,0 -8.5474,0.132 -8.5474,34.6778 v 34.6778 h 17.4609 c 16.3863,0 17.2325,0.4269 13.7491,6.9356 -3.1258,5.8406 -7.2609,6.9356 -26.192,6.9356 h -22.4802 z"
         id="path1000"
         transform="matrix(0.84514927,0,0,0.84514927,-572.58483,-1371.7694)" />
      <path
         style="fill:#ffffff;fill-opacity:1;stroke-width:3.46778"
         d=""
         id="path1002"
         transform="matrix(0.84514927,0,0,0.84514927,-572.58483,-1371.7694)" />
      <path
         style="fill:#ffffff;fill-opacity:1;stroke-width:3.46778"
         d="m 1518.3253,1807.0545 c 0,-0.8827 5.4617,-37.3943 12.1372,-81.1369 6.6755,-43.7425 12.1372,-81.2526 12.1372,-83.3557 0,-5.283 13.7274,-4.8345 15.639,0.5109 1.2538,3.5061 25.9744,159.8905 25.9744,164.3162 0,0.6987 -3.6115,1.2704 -8.0256,1.2704 -7.7086,0 -8.2629,-1.8834 -14.0321,-47.682 -3.3036,-26.2251 -6.9764,-53.1438 -8.1619,-59.8192 -2.0664,-11.6369 -2.2545,-11.7717 -4.5623,-3.268 -1.3239,4.8781 -5.2737,31.7967 -8.7775,59.8192 -6.1283,49.0132 -6.6738,50.95 -14.3494,50.95 -4.3885,0 -7.979,-0.7222 -7.979,-1.6049 z"
         id="path1004"
         transform="matrix(0.84514927,0,0,0.84514927,-572.58483,-1371.7694)" />
      <path
         style="fill:#ffffff;fill-opacity:1;stroke-width:3.46778"
         d="m 1674.3754,1723.6987 v -84.9606 h 18.5353 c 26.9587,0 30.0136,4.65 30.0136,45.6837 0,36.7416 -2.8987,42.4575 -23.635,46.6048 l -11.0428,2.2085 v 37.7122 c 0,35.4002 -0.4251,37.7121 -6.9355,37.7121 -6.7469,0 -6.9356,-2.3119 -6.9356,-84.9607 z m 30.4926,-8.1526 c 3.2277,-2.0477 4.1993,-11.0208 3.4677,-32.0239 -1.009,-28.9676 -1.0855,-29.187 -10.5528,-30.2764 l -9.5364,-1.0972 v 33.1742 c 0,29.3029 0.7082,33.1681 6.0687,33.1212 3.3377,-0.029 8.0865,-1.3333 10.5528,-2.8979 z"
         id="path1006"
         transform="matrix(0.84514927,0,0,0.84514927,-572.58483,-1371.7694)" />
      <path
         style="fill:#ffffff;fill-opacity:1;stroke-width:3.46778"
         d="m 1823.49,1723.6987 v -84.9606 h 18.5353 c 26.9587,0 30.0136,4.65 30.0136,45.6837 0,36.7416 -2.8987,42.4575 -23.635,46.6048 l -11.0428,2.2085 v 37.7122 c 0,35.4002 -0.4251,37.7121 -6.9355,37.7121 -6.7469,0 -6.9356,-2.3119 -6.9356,-84.9607 z m 32.9439,-38.1456 v -31.21 l -9.5364,-1.0973 -9.5364,-1.0972 v 33.4045 33.4046 l 9.5364,-1.0972 9.5364,-1.0973 z"
         id="path1008"
         transform="matrix(0.84514927,0,0,0.84514927,-572.58483,-1371.7694)" />
      <path
         style="fill:#ffffff;fill-opacity:1;stroke-width:3.46778"
         d="m 1980.6338,1808.7664 c -14.6373,-6.1511 -20.4008,-32.3212 -9.5154,-43.2066 8.9519,-8.9519 11.4726,-6.3948 12.5752,12.7565 0.9689,16.8282 1.7042,18.2058 9.7177,18.2058 8.0846,0 8.7382,-1.2995 9.6893,-19.264 0.926,-17.4921 -0.6528,-22.436 -17.1643,-53.7506 -15.7583,-29.8862 -18.2073,-37.1864 -18.3587,-54.726 -0.1508,-17.4662 1.0022,-21.1933 8.4146,-27.2013 10.1515,-8.2282 30.3422,-6.637 37.3474,2.9432 5.512,7.538 5.6118,22.772 0.1848,28.199 -6.8615,6.8615 -9.2352,4.8368 -10.3674,-8.8429 -0.9329,-11.2722 -2.2309,-13.0042 -9.7457,-13.0042 -7.9955,0 -8.7502,1.3937 -9.708,17.927 -0.9095,15.701 1.1358,22.2599 16.472,52.8207 15.0399,29.9705 17.5104,37.7446 17.5104,55.1005 0,11.1138 -1.9506,22.8249 -4.3347,26.0247 -5.3261,7.1482 -22.5074,10.3087 -32.7172,6.0182 z"
         id="path1010"
         transform="matrix(0.84514927,0,0,0.84514927,-572.58483,-1371.7694)" />
    </g>
    <text
       xml:space="preserve"
       style="font-style:normal;font-variant:normal;font-weight:normal;font-stretch:normal;font-size:3.452px;line-height:1.25;font-family:System-ui;-inkscape-font-specification:System-ui;letter-spacing:0.00636481px;word-spacing:0.00601119px;fill:#ffffff;fill-opacity:1;stroke:none;stroke-width:0.0863011"
       x="13.527084"
       y="11.513307"
       id="text159"><tspan
         sodipodi:role="line"
         id="tspan157"
         x="13.527084"
         y="11.513307"
         style="font-style:normal;font-variant:normal;font-weight:normal;font-stretch:normal;font-family:System-ui;-inkscape-font-specification:System-ui;fill:#ffffff;fill-opacity:1;stroke-width:0.0863011"
         dx="0"
         dy="0.19244729">MARKETPLACE</tspan></text>
  </g>
  <style
     type="text/css"
     id="style91">
	.st0{fill:#00A69C;}
	.st1{opacity:0.54;fill:#FFFFFF;}
	.st2{fill:#FFFFFF;}
	.st3{opacity:0.33;fill:#FFFFFF;}
</style>
</svg>
