<?xml version="1.0" encoding="utf-8"?>
<!-- Generator: Adobe Illustrator 25.0.0, SVG Export Plug-In . SVG Version: 6.00 Build 0)  -->
<svg version="1.1" id="Layer_1" xmlns="http://www.w3.org/2000/svg" xmlns:xlink="http://www.w3.org/1999/xlink" x="0px" y="0px"
	 viewBox="0 0 1150 170" style="enable-background:new 0 0 1150 170;" xml:space="preserve">
<style type="text/css">
	.st0{fill:#00A69C;}
	.st1{opacity:0.54;fill:#FFFFFF;}
	.st2{fill:#FFFFFF;}
	.st3{opacity:0.33;fill:#FFFFFF;}
</style>
<g>
	<rect x="15" y="10.19" class="st0" width="150" height="150"/>
	<polygon class="st1" points="116.47,120.48 107.65,119.01 63.53,111.66 52.28,25.47 50.29,10.19 63.53,23.42 93.2,77.82 
		72.36,102.84 	"/>
	<polygon class="st2" points="52.28,25.47 15,32.25 50.29,10.19 	"/>
	<polygon class="st3" points="116.47,120.48 107.65,160.19 107.65,119.01 	"/>
	<polygon class="st2" points="165,124.89 112.41,112.37 111.99,112.27 72.36,102.84 93.2,77.82 94.41,76.37 	"/>
	<polygon class="st3" points="116.47,120.48 72.36,102.84 111.99,112.27 	"/>
	<polygon class="st1" points="107.65,151.37 107.65,160.19 98.82,160.19 	"/>
</g>
<g>
	<g>
		<path class="st0" d="M256.65,83.95l-10.08,74.58H232.7L214.43,11.47h11.56c3.57,0,4.41,2.1,4.62,3.15l10.08,80.46l7.35-50.83
			c0.84-8.61,3.36-11.77,13.02-11.77h1.89l9.87,62.6l9.67-80.67c0.21-1.05,1.26-2.94,4.41-2.94h11.98l-17.86,147.06h-14.08
			L256.65,83.95z"/>
		<path class="st0" d="M375.76,11.47c4.41,0,6.1,3.36,6.1,5.89v141.17h-10.72c-3.57,0-4.2-2.1-4.41-3.15V11.47H375.76z"/>
		<path class="st0" d="M497.4,104.75c0-7.14-3.78-9.45-7.78-9.45h-7.98v63.23h-15.13V11.47h27.52c10.08,0,18.49,8.19,18.49,18.49
			v45.38c0,0,0.63,11.55-5.47,13.02c5.88,2.94,5.47,13.87,5.47,13.87v56.3H497.4V104.75z M489.63,81.01c3.99,0,7.78-1.68,7.78-8.4
			v-39.5c0-5.46-3.78-7.56-7.78-7.56h-7.98v55.46H489.63z"/>
		<path class="st0" d="M645.5,143.61c-1.68,3.78-4.2,9.67-4.83,10.93c-1.05,1.89-3.36,3.99-8.19,3.99h-33.61V15.67
			c0.21-2.31,2.1-4.21,4.62-4.21h39.28l-5.04,10.93c-0.84,1.89-3.15,4.2-7.98,4.2h-12.19c-2.1,0-3.57,1.47-3.57,3.57v43.7h22.68
			c-1.68,3.78-4.2,9.87-4.83,11.13c-1.05,1.89-3.15,3.99-7.98,3.99h-6.3c-1.89,0-3.57,1.68-3.57,3.57v51.05H645.5z"/>
		<path class="st0" d="M768.19,158.53h-16.6L738.36,57.27l-13.24,101.26h-16.59L730.8,11.47h8.19c6.3,0,7.35,3.99,7.98,7.98
			L768.19,158.53z"/>
		<path class="st0" d="M866.72,11.47c10.08,0,19.12,8.19,19.12,18.49v38.02c0,14.29-6.93,24.58-21.43,24.58h-9.03v65.97h-10.72
			c-3.57,0-4.2-2.1-4.2-3.15V11.47H866.72z M871.34,32.69c-0.42-3.99-3.78-7.14-7.98-7.14h-7.98v52.94h7.98
			c4.2,0,7.56-3.15,7.98-7.14V32.69z"/>
		<path class="st0" d="M992.76,11.47c10.08,0,19.12,8.19,19.12,18.49v38.02c0,14.29-6.93,24.58-21.43,24.58h-9.03v65.97H970.7
			c-3.57,0-4.2-2.1-4.2-3.15V11.47H992.76z M997.39,32.69c-0.42-3.99-3.78-7.14-7.98-7.14h-7.98v52.94h7.98
			c4.2,0,7.56-3.15,7.98-7.14V32.69z"/>
		<path class="st0" d="M1119.65,48.45V31.43c0-4.62-3.57-8.19-7.98-8.19c-4.41,0-7.98,3.57-7.98,8.19v14.08
			c0,8.61,6.51,19.74,6.51,19.74l18.07,34.04c7.35,13.45,6.73,23.32,6.73,23.32v18.7c0,10.29-8.41,18.7-18.91,18.7h-9.45
			c-10.08-0.42-18.07-8.61-18.28-18.7v-15.13c0-4.84,2.31-7.15,4.2-8.19c1.26-0.42,7.35-3.15,11.13-4.84v25.63
			c0,4.41,3.57,7.98,7.98,7.98c4.41,0,7.98-3.57,7.98-8.19v-16.81c0-8.61-6.51-19.96-6.51-19.96l-18.07-33.82
			c-7.35-13.45-6.72-23.32-6.72-23.32V29.54c0-10.29,8.4-19.54,18.91-19.54h9.45c10.09,0.21,18.28,9.45,18.28,19.54v5.67
			c0,4.83-2.31,7.14-4.2,8.19C1129.52,44.03,1123.64,46.76,1119.65,48.45z"/>
	</g>
</g>
</svg>
